<svg xmlns="http://www.w3.org/2000/svg" viewBox="0 0 100 110">
  <defs>
    <linearGradient id="m" x1="0" x2="0" y1="0" y2="1"><stop offset="0" stop-color="#ecdea8"/><stop offset="1" stop-color="#8c6a30"/></linearGradient>
    <linearGradient id="r" x1="0" x2="0" y1="0" y2="1"><stop offset="0" stop-color="#a87020"/><stop offset="1" stop-color="#5a3010"/></linearGradient>
  </defs>
  <g opacity="0.55"><path d="M 50 16 Q 53 6, 48 0" fill="none" stroke="#f5e6c8" stroke-width="1.8" stroke-linecap="round"/></g>
  <!-- Truffle mushroom -->
  <g transform="translate(50 30)">
    <ellipse cx="0" cy="0" rx="9" ry="4" fill="#2a1408" stroke="#1c0e04" stroke-width="1"/>
    <path d="M -8 0 Q 0 -10, 8 0 Z" fill="#3a1c08" stroke="#1c0e04" stroke-width="1"/>
    <circle cx="-2" cy="-3" r="1" fill="#5a3010" opacity="0.7"/>
    <circle cx="3" cy="-4" r="0.8" fill="#5a3010" opacity="0.7"/>
    <rect x="-3" y="0" width="6" height="6" rx="1" fill="#ecdea8" stroke="#1c0e04" stroke-width="0.8"/>
  </g>
  <path d="M 80 50 C 95 50, 95 72, 80 72 L 80 67 C 89 67, 89 55, 80 55 Z" fill="url(#r)" stroke="#1c0e04" stroke-width="1.2"/>
  <path d="M 18 45 Q 18 40, 24 40 L 76 40 Q 82 40, 82 45 L 78 95 Q 78 100, 73 100 L 27 100 Q 22 100, 22 95 Z" fill="url(#m)" stroke="#1c0e04" stroke-width="1.5"/>
  <ellipse cx="50" cy="41" rx="30" ry="5" fill="#1a0e04" stroke="#1c0e04" stroke-width="1"/>
  <ellipse cx="50" cy="40" rx="26" ry="3.5" fill="#0a0402"/>
  <line x1="22" y1="68" x2="80" y2="68" stroke="#d4900a" stroke-width="0.8" opacity="0.6"/>
  <line x1="22" y1="76" x2="80" y2="76" stroke="#d4900a" stroke-width="0.8" opacity="0.6"/>
</svg>
